<svg width="48" height="39" viewBox="0 0 48 39" fill="none" xmlns="http://www.w3.org/2000/svg">
<path d="M34.932 26.6536C35.4984 26.4772 36.3259 26.4583 36.9 26.4583C37.2504 26.4583 37.6128 26.4668 37.9646 26.4739C38.3102 26.4824 38.6683 26.491 39.0091 26.491C41.4437 26.491 43.7357 25.4732 45.4613 23.6224C47.075 21.8954 48 19.5796 48 17.2714C48 14.8476 47.0482 12.6588 45.3163 11.1087C43.6896 9.65139 41.4485 8.84834 39.0086 8.84834C38.1226 8.84834 37.3771 8.97775 36.7565 9.1304C36.7608 8.55394 36.7627 7.95189 36.7627 7.32233C36.7627 5.66075 35.6928 3.33027 30.5923 1.66537C27.3014 0.591153 22.9642 0 18.3816 0C13.7986 0 9.46176 0.591627 6.1704 1.66537C1.0704 3.3298 0 5.66028 0 7.32233C0 14.4072 0.24912 20.039 1.46256 24.4928C2.64192 28.8148 4.70112 32.1219 8.3496 35.5469C10.632 37.6902 14.101 38.8241 18.3806 38.8241C22.6618 38.8241 26.1307 37.6897 28.4126 35.5469C31.1904 32.9391 33.0682 30.2768 34.4995 26.9167C34.5197 26.8731 34.5643 26.7678 34.932 26.6536ZM32.6563 26.1515C31.3915 29.1229 29.7125 31.6023 27.035 34.1167C25.164 35.8736 22.2187 36.8487 18.3816 36.8487C14.544 36.8487 11.5978 35.8726 9.7272 34.1167C3.14304 27.9316 2.00016 22.1974 2.00016 7.32281C2.00016 4.36989 9.33408 1.97636 18.3811 1.97636C27.4282 1.97636 34.7621 4.36989 34.7621 7.32281C34.7621 8.82226 34.751 10.226 34.7232 11.55C34.8202 11.5638 34.9171 11.5709 35.015 11.5709C36.0466 11.5709 37.1227 10.8237 39.0082 10.8237C40.9507 10.8237 42.7142 11.4452 43.9728 12.5716C45.2798 13.7425 45.9998 15.4112 45.9998 17.2714C45.9998 19.089 45.2674 20.916 43.9901 22.2837C42.6466 23.7225 40.8778 24.5156 39.0082 24.5156C38.3563 24.5156 37.6272 24.4814 36.899 24.4814C35.0885 24.4814 33.2789 24.691 32.6563 26.1515Z" fill="#333333"/>
<path d="M39.0091 21.8092C41.3045 21.5807 43.2595 19.6892 43.2595 17.2719C43.2595 14.9993 41.5911 13.5306 39.0091 13.5306C36.8717 13.5306 35.3199 14.612 34.5442 16.0147C34.4645 17.2544 33.9149 21.0459 33.7791 22.1291C34.3426 21.7997 35.1259 21.7115 35.94 21.7115C36.8755 21.7115 37.8519 21.8276 38.58 21.8276C38.7351 21.8281 38.8795 21.8229 39.0091 21.8092ZM36.4973 16.658C36.8631 16.1731 37.6181 15.5065 39.0087 15.5065C40.0359 15.5065 41.2599 15.8128 41.2599 17.2724C41.2599 18.7282 40.0128 19.7242 38.808 19.8442C38.7711 19.848 38.7 19.8522 38.5795 19.8522C38.3031 19.8522 37.9387 19.8285 37.5528 19.8034C37.1127 19.7754 36.6207 19.7432 36.1186 19.7366C36.2688 18.623 36.4186 17.4568 36.4973 16.658Z" fill="#333333"/>
<path d="M30.1287 5.76885C29.8853 5.63991 29.5824 5.7295 29.4504 5.96985C29.3203 6.20973 29.4106 6.50933 29.6544 6.63922C30.3207 6.99382 30.7027 7.37497 30.7027 7.68405C30.7027 7.95948 30.3931 8.343 29.6261 8.74453C27.7776 7.4072 23.4399 6.46667 18.3816 6.46667C13.3224 6.46667 8.98514 7.40673 7.13666 8.74453C6.3701 8.343 6.06098 7.95996 6.06098 7.68405C6.06098 7.37354 6.4445 6.99193 7.11314 6.63685C7.3565 6.50791 7.44722 6.2083 7.31714 5.96748C7.18514 5.72761 6.88226 5.63754 6.6389 5.76648C5.59106 6.32255 5.06018 6.96727 5.06018 7.68311C5.06018 9.2385 7.59698 10.3374 11.0899 10.9527C10.6354 11.4761 10.4122 12.2843 10.4122 13.4154V18.3182C10.3037 18.3708 10.2015 18.4405 10.1107 18.5296L7.89554 20.7169C7.4549 21.1535 7.09298 22.0135 7.09298 22.6298V26.2165C7.09298 26.8323 7.6037 27.3372 8.2277 27.3372H13.597C14.2205 27.3372 14.7312 26.8323 14.7312 26.2165V22.6298C14.7312 22.0135 14.3707 21.1535 13.9296 20.7169L11.7149 18.5296C11.6247 18.4405 11.5224 18.3708 11.413 18.3182V13.4154C11.413 12.4711 11.5834 11.8354 11.9189 11.5225C12.1517 11.3054 12.4997 11.213 12.984 11.2414C13.0119 11.2423 13.0378 11.2409 13.0642 11.2376C14.7499 11.4334 16.5687 11.5334 18.3821 11.5334C25.0018 11.5334 31.7026 10.2108 31.7026 7.68263C31.7021 6.96964 31.1727 6.32445 30.1287 5.76885Z" fill="#333333"/>
</svg>
